<svg xmlns="http://www.w3.org/2000/svg" viewBox="0 80 2109 707">
  <defs>
    <style>.cls-1{fill:#00461e;}.cls-2,.cls-3,.cls-4,.cls-8{font-size:52.85px;font-family:Chivo-Regular, Chivo, sans-serif;}.cls-2,.cls-8{fill:#c8fa64;}.cls-2,.cls-4{letter-spacing:-0.02em;}.cls-3,.cls-4{fill:#fff;}.cls-3,.cls-6,.cls-8{letter-spacing:-0.02em;}.cls-5{letter-spacing:-0.02em;}.cls-7{fill:none;stroke:#c8fa64;stroke-miterlimit:10;stroke-width:6.5px;}</style>
  </defs>
  <text class="cls-2" x="564.27" y="237.5">see</text>
  <text class="cls-3" x="930.59" y="272.48">data</text>
  <text class="cls-4" x="605.41" y="633.34">technology</text>
  <text class="cls-4" x="1006.96" y="467.1">strategy</text>
  <text class="cls-3" x="1492.09" y="367.87">government</text>
  <path class="cls-7" d="M1551.17,524.23C1685.5,425.5,2112.5,430.5,2112.5,430.5" />
  <text class="cls-4" x="141.07" y="289.44">open</text>
  <text class="cls-3" x="1051.72" y="612.21">users</text>
  <text class="cls-4" x="309.18" y="505.62">registers</text>
  <text class="cls-3" x="1460.16" y="202.97">future</text>
  <text class="cls-3" x="550.33" y="414.94">trust</text>
  <text class="cls-8" x="823.23" y="489.37">the</text>
  <text class="cls-8" x="1214.72" y="288.07">big</text>
  <text class="cls-8" x="1361.49" y="567">picture</text>
  <text class="cls-3" x="1703.21" y="642.2">stability</text>
  <path class="cls-7" d="M663.79,223.91c35.56,0,56.55,13.87,72.77,36.59s22.25,51.16,24.67,79,12.8,81.46,47.08,107.2" />
  <path class="cls-7" d="M916,475.12c14,.59,27.45-7.93,36.29-18.77a131.78,131.78,0,0,0,29.37-81.79c.07-12-1.72-24.51-8.56-34.37S953.34,324,942,327.78c-9.71,3.23-16.16,13.07-17.7,23.18-1,6.36-.15,13.31,3.82,18.37s10.45,7.5,16.75,8.84c28.54,6.07,58.09-5.66,82.29-22s45-37.27,69.49-53.18c26.36-17.15,60-28.13,91.25-31.81" />
  <path class="cls-7" d="M 544.37,224.57 C 288.44811,213.80944 153.89689,85.551727 0,96.714128" />
  <polyline class="cls-7" points="532.1 211.46 545.2 224.57 532.1 237.67" />
  <polyline class="cls-7" points="1174.75 259.38 1187.85 272.48 1174.75 285.59" />
  <polyline class="cls-7" points="806.39 428.24 808.32 446.67 789.88 448.6" />
  <polyline class="cls-7" points="1315.35 567.15 1332.02 575.25 1323.91 591.92" />
  <path class="cls-7" d="M1305.31,283.25C1387.29,304,1410.21,389,1316.57,446S1221.32,617.49,1332,575.25" />
</svg>