<svg id="Layer_1" data-name="Layer 1" xmlns="http://www.w3.org/2000/svg" viewBox="0 0 1009 352"><defs><style>.cls-1{fill:#00461e;}</style></defs><title>Logo-LightBG</title><g id="logo_mark_2" data-name="logo mark 2"><path class="cls-1" d="M179.56,149.63c-34.74,0-64.43-5-76.34-12.07a3.72,3.72,0,0,0-5.58,3.24v6.4c0,10.47,36.68,19,81.92,19s81.92-8.49,81.92-19v-6.4a3.72,3.72,0,0,0-5.58-3.24C244,144.62,214.3,149.63,179.56,149.63Z"/><path class="cls-1" d="M179.56,183.14c-34.74,0-64.43-5-76.34-12.07a3.72,3.72,0,0,0-5.58,3.24v6.4c0,10.47,36.68,19,81.92,19s81.92-8.49,81.92-19v-6.4a3.72,3.72,0,0,0-5.58-3.24C244,178.14,214.3,183.14,179.56,183.14Z"/><path class="cls-1" d="M179.56,216.65c-34.74,0-64.43-5-76.34-12.07a3.72,3.72,0,0,0-5.58,3.24v6.4c0,10.47,36.68,19,81.92,19s81.92-8.49,81.92-19v-6.4a3.72,3.72,0,0,0-5.58-3.24C244,211.65,214.3,216.65,179.56,216.65Z"/><path class="cls-1" d="M272.25,233.84a6.84,6.84,0,0,0-7,1c-10.53,8.66-44.89,15-85.68,15s-75.15-6.35-85.68-15a6.84,6.84,0,0,0-7-1c-11.59,4.93-18.34,10.85-18.34,17.2v4c0,17.26,49.71,31.25,111,31.25s111-14,111-31.25v-4C290.59,244.68,283.84,238.77,272.25,233.84Z"/><path class="cls-1" d="M179.56,65.76c-61.32,0-111,14-111,31.25v4c0,17.26,49.71,31.25,111,31.25s111-14,111-31.25V97C290.59,79.75,240.88,65.76,179.56,65.76Zm0,37.81c-14.29,0-25.88-2.86-25.88-6.39s11.59-6.39,25.88-6.39,25.88,2.86,25.88,6.39S193.86,103.57,179.56,103.57Z"/><path class="cls-1" d="M404.12,129.84q8.29,6.09,8.29,16.72a26,26,0,0,1-5,16.15,20,20,0,0,1-12.4,8.08v.71a23.75,23.75,0,0,1,11.19,9.35,28.44,28.44,0,0,1,4.39,16,60.4,60.4,0,0,0,.85,11.76q.85,4,2.27,5.52a9.11,9.11,0,0,0,4.11,2.41v4a17.43,17.43,0,0,1-6.66,1.27q-6.8,0-10.63-4t-3.83-15.23q0-11.47-4.75-17.92t-11.83-6.45H355.45v42.79H341.57V123.75h41.37Q395.83,123.75,404.12,129.84Zm-48.66,6.52v29.18h27.63a15.82,15.82,0,0,0,10.77-4.11,13,13,0,0,0,4.68-10.2v-.57a13.55,13.55,0,0,0-4.25-10.27q-4.25-4-11.19-4Z"/><path class="cls-1" d="M474.39,150.88a26.53,26.53,0,0,1,10.7,10.7,32.94,32.94,0,0,1,3.83,16.15v10.06H438.33q.28,11.48,5.38,17.71t15.16,6.23q8.93,0,13.18-5.24A19.18,19.18,0,0,0,476.3,194h12.61a28,28,0,0,1-3.9,14.88,26.64,26.64,0,0,1-10.77,9.92,33.7,33.7,0,0,1-15.65,3.54H458q-15.3,0-24.16-9.85T425,186.22v-2.83a43.16,43.16,0,0,1,4-19,29.79,29.79,0,0,1,11.33-12.75,32.32,32.32,0,0,1,17.28-4.53h1A32.44,32.44,0,0,1,474.39,150.88Zm-29.61,11.83q-5,5-6.16,14.73h37.12v-1.7q0-8.08-4.89-13t-13-5Q449.81,157.75,444.78,162.71Z"/><path class="cls-1" d="M568,147.62a17.49,17.49,0,0,1-10.63,6.3l-.28.43a19.9,19.9,0,0,1,7.08,15.58,20.16,20.16,0,0,1-7.65,16.43q-7.65,6.24-20.83,6.23H526a11.22,11.22,0,0,0-7.08,2.2,6.78,6.78,0,0,0-2.83,5.6,6.33,6.33,0,0,0,2.69,5.38,11.9,11.9,0,0,0,7.23,2h27.34q8.36,0,13.39,5.24a18.46,18.46,0,0,1,5,13.32,18.75,18.75,0,0,1-7.3,15.44q-7.3,5.81-19.62,5.81H516.39a16.25,16.25,0,0,1-8.85-2.55,19.33,19.33,0,0,1-6.37-6.45,15.38,15.38,0,0,1-2.34-8,18.3,18.3,0,0,1,2.9-10.34,17.58,17.58,0,0,1,7.72-6.52,12.9,12.9,0,0,1-6.52-11.76,13.55,13.55,0,0,1,3-8.78,17.84,17.84,0,0,1,8.36-5.53q-9.49-5.24-9.49-17.71,0-10.48,7.72-16.65T534,147.12h.57A41.45,41.45,0,0,1,549,149.53q10.06-5,11.48-14h11.33A19.06,19.06,0,0,1,568,147.62Zm-47.74,72.89a8.22,8.22,0,0,0,0,16.43h27.34a12.05,12.05,0,0,0,7.79-2.62,7.62,7.62,0,0,0,3.26-6,7.18,7.18,0,0,0-2.41-5.67,10,10,0,0,0-6.8-2.12Zm2.2-59.86q-4.46,2.91-4.46,9.28t4.46,9.21q4.46,2.84,12,2.83t12-2.83q4.53-2.83,4.53-9.21t-4.53-9.28q-4.54-2.9-12-2.9T522.41,160.65Z"/><path class="cls-1" d="M599.55,118.93v12.33H585.67V118.93Zm-.28,29.61v72.39H586V148.54Z"/><path class="cls-1" d="M662,149.67a22.68,22.68,0,0,1,9.78,7.08,16.16,16.16,0,0,1,3.47,10.06l-.14,2.55H661.89v-1.27q0-10.34-16-10.34T630,167.24q0,4.39,4.53,6.45a67.35,67.35,0,0,0,13.88,3.9,121,121,0,0,1,14.66,3.83,24.15,24.15,0,0,1,9.78,6.23q4,4.25,4,11.48,0,11.62-7.93,17.43t-22.81,5.81H644a40.46,40.46,0,0,1-15.58-2.76,24.16,24.16,0,0,1-10.27-7.51,16.52,16.52,0,0,1-3.47-10.7v-3.12h13.18v1.42q0,12,20.26,12a21.3,21.3,0,0,0,10.7-2.69q4.74-2.69,4.75-7.37a7.82,7.82,0,0,0-2.62-6.23,17.2,17.2,0,0,0-6.45-3.4,93.86,93.86,0,0,0-10.63-2.27,119.59,119.59,0,0,1-14.17-3.47,21,21,0,0,1-9.21-6q-3.82-4.25-3.83-11.62a18.43,18.43,0,0,1,7.93-15.8q7.93-5.74,21.68-5.74h1.27A38.09,38.09,0,0,1,662,149.67Z"/><path class="cls-1" d="M708.36,148.54h16.86v10.63H708.36v43.21q0,5.1,2,7.37t6.09,2.27a23.54,23.54,0,0,0,8.78-2.12v9.92q-5.1,2.55-13.18,2.55-8.36,0-12.68-5T695,201.67v-42.5h-7.93V148.54h8.36L700,125.45h8.36Z"/><path class="cls-1" d="M783.8,150.88a26.53,26.53,0,0,1,10.7,10.7,32.94,32.94,0,0,1,3.83,16.15v10.06H747.74q.28,11.48,5.38,17.71t15.16,6.23q8.93,0,13.18-5.24A19.18,19.18,0,0,0,785.71,194h12.61a28,28,0,0,1-3.9,14.88,26.64,26.64,0,0,1-10.77,9.92A33.71,33.71,0,0,1,768,222.35h-.57q-15.3,0-24.16-9.85t-8.85-26.28v-2.83a43.16,43.16,0,0,1,4-19,29.79,29.79,0,0,1,11.33-12.75A32.31,32.31,0,0,1,767,147.12h1A32.44,32.44,0,0,1,783.8,150.88Zm-29.61,11.83q-5,5-6.16,14.73h37.12v-1.7q0-8.08-4.89-13t-13-5Q759.22,157.75,754.19,162.71Z"/><path class="cls-1" d="M863.2,153.57q5.66,6.45,5.67,16.22l-.42,5.38H856.69v-3.12a13.44,13.44,0,0,0-2.12-7.51,14.84,14.84,0,0,0-5.38-5,13.56,13.56,0,0,0-6.52-1.77A12.31,12.31,0,0,0,832,163.13q-3.82,5.39-3.83,14.59v43.21H814.89V148.54h9.49l2,10.77a13.41,13.41,0,0,1,3.83-5.67,23.86,23.86,0,0,1,7.44-4.67,25.59,25.59,0,0,1,9.85-1.84Q857.54,147.12,863.2,153.57Z"/><path class="cls-1" d="M923.48,149.67a22.68,22.68,0,0,1,9.78,7.08,16.16,16.16,0,0,1,3.47,10.06l-.14,2.55H923.41v-1.27q0-10.34-16-10.34t-15.87,9.49q0,4.39,4.53,6.45a67.35,67.35,0,0,0,13.88,3.9,121,121,0,0,1,14.66,3.83,24.15,24.15,0,0,1,9.78,6.23q4,4.25,4,11.48,0,11.62-7.93,17.43t-22.81,5.81h-2.13A40.46,40.46,0,0,1,890,219.59a24.16,24.16,0,0,1-10.27-7.51,16.52,16.52,0,0,1-3.47-10.7v-3.12h13.18v1.42q0,12,20.26,12a21.3,21.3,0,0,0,10.7-2.69q4.74-2.69,4.75-7.37a7.82,7.82,0,0,0-2.62-6.23A17.2,17.2,0,0,0,916,192a93.86,93.86,0,0,0-10.63-2.27,119.59,119.59,0,0,1-14.17-3.47,21,21,0,0,1-9.21-6q-3.82-4.25-3.83-11.62a18.43,18.43,0,0,1,7.93-15.8q7.93-5.74,21.68-5.74h1.27A38.09,38.09,0,0,1,923.48,149.67Z"/></g></svg>