<svg id="Layer_1" data-name="Layer 1" xmlns="http://www.w3.org/2000/svg" viewBox="0 0 486 500"><defs><style>.cls-1{fill:#fad464;}.cls-2{fill:none;stroke:#00461e;stroke-miterlimit:10;stroke-width:6.5px;}.cls-3{fill:#b5fcff;}.cls-4{fill:#c8fa64;}</style></defs><title>Combination</title><polygon class="cls-1" points="256.69 253.26 148.4 303.09 148.4 428.77 256.69 478.59 256.69 352.91 364.98 303.09 256.69 253.26"/><path class="cls-2" d="M403.83,248.83c-.57,13.07.65,25.63,5.53,37.77,1.72,4.27,3.83,8.52,7.23,11.63s8.3,4.91,12.71,3.56c7.23-2.21,9.68-12.45,5.48-18.74s-12.84-8.44-20.21-6.76-13.63,6.48-19,11.76C375.19,307.87,365,356.82,365,388.44v40.33L256.69,478.59,148.4,428.77V303.09l108.29-49.82L365,303.09,256.69,352.91,120.85,290.36"/><path class="cls-3" d="M387.53,241.42c-.08-4-.16-8.11.9-12s3.44-7.6,7.07-9.32a21.09,21.09,0,0,1,7.36-1.51l17.42-1.44c3.08-.25,6.26-.54,9-2,5.87-3.21,7.6-11,6.7-17.63a15.4,15.4,0,0,1-.26-4.73c.5-2.8,2.79-4.89,4.19-7.38s1.4-6.4-1.27-7.39c3.9-3,2.56-9,1.28-13.73a4,4,0,0,1-.17-2.05,3.4,3.4,0,0,1,1.88-1.93c3.14-1.62,7.11-1.5,9.86-3.73a9.34,9.34,0,0,0,3-7.73,23.13,23.13,0,0,0-2.38-8.23,93.92,93.92,0,0,0-7.38-13.41c-1.49-2.25-3.14-4.62-3.16-7.31a14.87,14.87,0,0,1,.9-4.36,56.84,56.84,0,0,0-.37-33.42c-6.17-19.25-19.37-60.83-92.27-60.83s-81.7,65.07-75.83,86.1,25.93,55.28,25.93,71.43-9.78,62.63-9.78,62.63"/><path class="cls-4" d="M128.2,121.37c-3.44,0-6.75-.06-10-.18V246.14c3.22.1,6.53.16,10,.16,91.17,0,105.71-36.52,105.71-36.52v-131S221.61,121.37,128.2,121.37Z"/><path class="cls-4" d="M57.48,109.58c-29.73-12.61-35-30.83-35-30.83v131s6.08,15.26,35,26Z"/><path class="cls-2" d="M47.24,106.16c19.39,9.3,48.46,15.21,81,15.21,58.38,0,105.71-19.08,105.71-42.62S186.58,36.13,128.2,36.13,22.49,55.21,22.49,78.75v41.15c0,23.54,47.33,42.62,105.71,42.62S233.9,143.44,233.9,119.91v41.89c0,23.54-47.33,42.62-105.71,42.62S22.49,185.33,22.49,161.79v41.89c0,23.54,47.33,42.62,105.71,42.62,137,0,160.27-54.6,169.31-73.73,4.58-9.69,3.2-21,.29-31.05-2.58-8.95-5-17.76-7.5-26.74-5.87-21,2.94-86.1,75.83-86.1s86.1,41.58,92.27,60.83a56.84,56.84,0,0,1,.37,33.42,14.87,14.87,0,0,0-.9,4.36c0,2.7,1.68,5.06,3.16,7.31A93.92,93.92,0,0,1,468.41,148a23.13,23.13,0,0,1,2.38,8.23,9.34,9.34,0,0,1-3,7.73c-2.75,2.23-6.72,2.11-9.86,3.73a3.4,3.4,0,0,0-1.88,1.93,4,4,0,0,0,.17,2.05c1.28,4.73,2.62,10.76-1.28,13.73,2.67,1,2.67,4.91,1.27,7.39s-3.69,4.57-4.19,7.38a15.4,15.4,0,0,0,.26,4.73c.89,6.63-.84,14.42-6.7,17.63-2.71,1.48-5.89,1.77-9,2L419.16,226a21.09,21.09,0,0,0-7.36,1.51c-3.64,1.72-6,5.44-7.07,9.32s-1,8-.9,12"/></svg>