<?xml version="1.0" encoding="UTF-8" standalone="no"?>
<!-- Modified from https://commons.wikimedia.org/wiki/File:Cryptographic_Hash_Function.svg -->
<svg xmlns:svg="http://www.w3.org/2000/svg" xmlns="http://www.w3.org/2000/svg" version="1.0" width="739.9375" height="536.38123">
  <style type="text/css">
    * { font-family: sans-serif }
    text { font-size:19.2px; font-weight:normal; fill:#ffffff; }
    text.hash { font-weight: bold; font-family: monospace; }
    .input { fill: #3c78d8; }
    .function { fill: #009671; }
    .title { font-size:28.79999924px;font-weight:bold;stroke:none; fill: black; }
    .output { fill: #cc0000; font-family: monospace; }
    .input, .function, .output { stroke: black; stroke-width: 1; }
    .arrowline { fill: none; stroke: black; stroke-width: 1.5px; }
    .arrowhead { fill:#000000; stroke: black; stroke-width:1.5px }
    .highlight { fill:#14009c;fill-opacity:1;stroke:none }
  </style>
  <g transform="translate(0.5,35.881249)">
    <text x="38.502106" y="-2" class="title">Input</text>
    <text x="524.03241" y="-2" class="title">Hash</text>
    <rect width="141.20421" height="78" x="12" y="10" class="input"/>
    <text x="22" y="55">Fox</text>
    <rect width="154" height="75" x="214" y="12" class="function"/>
    <text x="224" y="33">cryptographic</text>
    <text x="266" y="56">hash</text>
    <text x="250" y="79">function</text>
    <rect width="298.93976" height="60" x="428" y="20" class="output"/>
    <text x="438" y="44" class="hash">DFCD 3454 BBEA 788A 751A</text>
    <text x="438" y="67" class="hash">696C 24D9 7009 CA99 2D17</text>
    <path d="m 152.89179,49 c 61.17891,0 61.17891,0 61.17891,0" class="arrowline"/>
    <g transform="translate(214.0707,49)">
      <path d="M 0,0 -16,6 -16,-6 0,0 z" class="arrowhead"/>
    </g>
    <g transform="translate(368,49)">
      <path d="M 0,0 C 60,0 60,0 60,0" class="arrowline"/>
      <g transform="translate(60,0)">
        <path d="M 0,0 -16,6 -16,-6 0,0 z" class="arrowhead"/>
      </g>
    </g>
    <rect width="141.20421" height="78" x="12" y="110" class="input"/>
    <text x="22" y="132">The red fox</text>
    <text x="22" y="155">jumps over</text>
    <text x="22" y="178">the blue dog</text>
    <rect width="154" height="75" x="214" y="112" class="function"/>
    <text x="224" y="133">cryptographic</text>
    <text x="266" y="156">hash</text>
    <text x="250" y="179">function</text>
    <rect width="298.93976" height="60" x="428" y="120" class="output"/>
    <text x="438" y="144" class="hash">0086 46BB FB7D CBE2 823C</text>
    <text x="438" y="167" class="hash">ACC7 6CD1 90B1 EE6E 3ABC</text>
    <path d="m 152.89179,149 c 61.17891,0 61.17891,0 61.17891,0" class="arrowline"/>
    <g transform="translate(214.0707,149)">
      <path d="M 0,0 -16,6 -16,-6 0,0 z" class="arrowhead"/>
    </g>
    <g transform="translate(368,149)">
      <path d="M 0,0 C 60,0 60,0 60,0" class="arrowline"/>
      <g transform="translate(60,0)">
        <path d="M 0,0 -16,6 -16,-6 0,0 z" class="arrowhead"/>
      </g>
    </g>
    <rect width="141.20421" height="78" x="12" y="210" class="input"/>
    <text x="22" y="232">The red fox</text>
    <rect width="12.066001" height="19.116781" x="88.415863" y="240.5753" class="highlight"/>
    <text x="22" y="255">jumps ouer</text>
    <text x="22" y="278">the blue dog</text>
    <rect width="154" height="75" x="214" y="212" class="function"/>
    <text x="224" y="233">cryptographic</text>
    <text x="266" y="256">hash</text>
    <text x="250" y="279">function</text>
    <rect width="298.93976" height="60" x="428" y="220" class="output"/>
    <text x="438" y="244" class="hash">8FD8 7558 7851 4F32 D1C6</text>
    <text x="438" y="267" class="hash">76B1 79A9 0DA4 AEFE 4819</text>
    <path d="m 152.89179,249 c 61.17891,0 61.17891,0 61.17891,0" class="arrowline"/>
    <g transform="translate(214.0707,249)">
      <path d="M 0,0 -16,6 -16,-6 0,0 z" class="arrowhead"/>
    </g>
    <g transform="translate(368,249)">
      <path d="M 0,0 C 60,0 60,0 60,0" class="arrowline"/>
      <g transform="translate(60,0)">
        <path d="M 0,0 -16,6 -16,-6 0,0 z" class="arrowhead"/>
      </g>
    </g>
    <rect width="141.20421" height="78" x="12" y="310" class="input"/>
    <text x="22" y="332">The red fox</text>
    <rect width="21.608376" height="19.116781" x="88.556007" y="339.85858" class="highlight"/>
    <text x="22" y="355">jumps oevr</text>
    <text x="22" y="378">the blue dog</text>
    <rect width="154" height="75" x="214" y="312" class="function"/>
    <text x="224" y="333">cryptographic</text>
    <text x="266" y="356">hash</text>
    <text x="250" y="379">function</text>
    <rect width="298.93976" height="60" x="428" y="320" class="output"/>
    <text x="438" y="344" class="hash">FCD3 7FDB 5AF2 C6FF 915F</text>
    <text x="438" y="367" class="hash">D401 C0A9 7D9A 46AF FB45</text>
    <path d="m 152.89179,349 c 61.17891,0 61.17891,0 61.17891,0" class="arrowline"/>
    <g transform="translate(214.0707,349)">
      <path d="M 0,0 -16,6 -16,-6 0,0 z" class="arrowhead"/>
    </g>
    <g transform="translate(368,349)">
      <path d="M 0,0 C 60,0 60,0 60,0" class="arrowline"/>
      <g transform="translate(60,0)">
        <path d="M 0,0 -16,6 -16,-6 0,0 z" class="arrowhead"/>
      </g>
    </g>
    <rect width="141.20421" height="78" x="12" y="410" class="input"/>
    <text x="22" y="432">The red fox</text>
    <rect width="23.831121" height="19.116781" x="76.783463" y="439.85858" class="highlight"/>
    <text x="22" y="455">jumps oer</text>
    <text x="22" y="478">the blue dog</text>
    <rect width="154" height="75" x="214" y="412" class="function"/>
    <text x="224" y="433">cryptographic</text>
    <text x="266" y="456">hash</text>
    <text x="250" y="479">function</text>
    <rect width="298.93976" height="60" x="428" y="420" class="output"/>
    <text x="438" y="444" class="hash">8ACA D682 D588 4C75 4BF4</text>
    <text x="438" y="467" class="hash">1799 7D88 BCF8 92B9 6A6C</text>
    <path d="m 152.89179,449 c 61.17891,0 61.17891,0 61.17891,0" class="arrowline"/>
    <g transform="translate(214.0707,449)">
      <path d="M 0,0 -16,6 -16,-6 0,0 z" class="arrowhead"/>
    </g>
    <g transform="translate(368,449)">
      <path d="M 0,0 C 60,0 60,0 60,0" class="arrowline"/>
      <g transform="translate(60,0)">
        <path d="M 0,0 -16,6 -16,-6 0,0 z" class="arrowhead"/>
      </g>
    </g>
  </g>
</svg>