<svg id="Layer_1" data-name="Layer 1" xmlns="http://www.w3.org/2000/svg" viewBox="0 0 322 306"><defs><style>.cls-1{fill:#c8fa64;}.cls-2{fill:none;stroke:#00461e;stroke-miterlimit:10;stroke-width:6.5px;}</style></defs><title>Data</title><path class="cls-1" d="M161,133.16c-3.44,0-6.75-.06-10-.18V257.93c3.22.1,6.53.16,10,.16,91.17,0,105.71-36.52,105.71-36.52v-131S254.41,133.16,161,133.16Z"/><path class="cls-1" d="M90.29,121.36c-29.73-12.61-35-30.83-35-30.83v131s6.08,15.26,35,26Z"/><path class="cls-2" d="M80,117.95c19.39,9.3,48.46,15.21,81,15.21,58.38,0,105.71-19.08,105.71-42.62S219.38,47.92,161,47.92,55.29,67,55.29,90.54v41.15c0,23.54,47.33,42.62,105.71,42.62s105.71-19.08,105.71-42.62v41.89c0,23.54-47.33,42.62-105.71,42.62S55.29,197.11,55.29,173.58v41.89c0,23.54,47.33,42.62,105.71,42.62"/></svg>