<svg id="Layer_1" data-name="Layer 1" xmlns="http://www.w3.org/2000/svg" viewBox="0 0 322 306"><defs><style>.cls-1{fill:#c8fa64;}.cls-2{fill:none;stroke:#00461e;stroke-miterlimit:10;stroke-width:6.5px;}</style></defs><title>Direction</title><polygon class="cls-1" points="38.65 62.97 38.65 145.38 226.35 128.11 278.81 70.82 218.38 28.44 38.65 62.97"/><polygon class="cls-1" points="23.6 197.13 70.7 154.31 268.63 173.34 268.63 252.79 73.08 252.79 23.6 197.13"/><path class="cls-2" d="M306.3,276.74c-45.06,3.15-94.61,5-148.59,5V244.63h101V164.95l-101-10.34V124l64.49-6.28,52.38-58L222.2,18.56,31.55,56.65v79.68l92.56-9v23.87l-56-5.73L15.7,186.67l52.38,58h56v37.16c-30.67,0-64.86,2.55-95.14,5.66"/><polyline class="cls-2" points="214.32 41.61 238.38 63.62 214.32 91.48"/><polyline class="cls-2" points="77.91 167.12 52.98 191.23 73.51 216.21"/></svg>