<svg id="Layer_1" data-name="Layer 1" xmlns="http://www.w3.org/2000/svg" viewBox="0 0 255.07 286.43"><defs><style>.cls-1{fill:#731e14;}.cls-2{fill:#ffb432;}.cls-3{fill:#3278ff;}</style></defs><title>Icon-BeReady</title><g id="logo_mark_2" data-name="logo mark 2"><path class="cls-1" d="M214.27,220.36v45.51H195.76V220.36c0-28-14.53-45.26-31.35-65.27-19.48-23.18-41.57-49.45-41.57-96.12V6.34h18.52V59c0,39.92,18.08,61.44,37.23,84.21C196.13,164.05,214.27,185.64,214.27,220.36Z"/><path class="cls-2" d="M177.82,196.44v69.43H159.3V196.44c0-17.87-15.73-27.44-41.38-41.59-30.29-16.7-68-37.48-68-88.35V6.34H68.44V66.51c0,39.93,29.7,56.3,58.42,72.13C151.91,152.45,177.82,166.73,177.82,196.44Z"/><path class="cls-3" d="M177.82,6.34V92.43c0,36.49-12.59,54.61-22.71,69.16-7.68,11-13.74,19.77-13.74,34.85v69.43H122.84V196.44c0-20.88,8.67-33.35,17.06-45.42,9.54-13.72,19.4-27.91,19.4-58.59V6.34Z"/><path class="cls-3" d="M214.27,6.34V72.06c0,45.25-35.79,63.91-64.55,78.91-27.89,14.54-44.83,24.86-44.83,45.47v69.43H86.38V196.44c0-33.32,27.85-47.85,54.78-61.89,28.08-14.64,54.59-28.47,54.59-62.49V6.34Z"/><path class="cls-2" d="M104.9,6.34V92.43c0,38.68-11.63,52.48-21.9,64.66-8.14,9.65-14.56,17.28-14.56,39.35v69.43H49.92V196.44c0-28.84,10.05-40.76,18.92-51.29,9-10.7,17.54-20.81,17.54-52.72V6.34Z"/></g></svg>