<?xml version="1.0" encoding="utf-8"?>
<!-- Generator: Adobe Illustrator 21.1.0, SVG Export Plug-In . SVG Version: 6.00 Build 0)  -->
<svg version="1.1" id="Layer_1" xmlns="http://www.w3.org/2000/svg" xmlns:xlink="http://www.w3.org/1999/xlink" x="0px" y="0px"
	 viewBox="0 0 255.1 286.4" style="enable-background:new 0 0 255.1 286.4;" xml:space="preserve">
<style type="text/css">
	.st0{fill:#731E14;}
	.st1{fill:#FFB432;}
	.st2{fill:#C8FA64;}
	.st3{fill:#3278FF;}
</style>
<title>Icon-Shapes</title>
<path class="st0" d="M49.9,9.5v72.9h72.9V9.5H49.9z M104.9,63.9H68.4V27.4h36.5L104.9,63.9z"/>
<path class="st1" d="M177.8,9.5c-20.1,0-36.5,16.3-36.5,36.5s16.3,36.5,36.5,36.5s36.5-16.3,36.5-36.5c0,0,0,0,0,0
	C214.3,25.8,198,9.5,177.8,9.5z M177.8,63.9c-9.9,0-17.9-8-17.9-17.9s8-17.9,17.9-17.9c9.9,0,17.9,8,17.9,17.9
	S187.7,63.9,177.8,63.9z"/>
<path class="st2" d="M141.4,100.3v72.9h72.9v-72.9H141.4z M195.8,155.3h-36.4v-36.5h36.5L195.8,155.3z"/>
<polygon class="st3" points="118.7,117.5 105.6,104.5 86.4,123.7 67.1,104.5 54,117.5 73.3,136.8 54,156 67.1,169.1 86.4,149.9 
	105.6,169.1 118.7,156 99.5,136.8 "/>
</svg>
