<?xml version="1.0" encoding="UTF-8" standalone="no"?>
<svg
   xmlns="http://www.w3.org/2000/svg"
   id="svg8"
   version="1.1"
   viewBox="0 0 712.6626 306.12711"
   height="306.12711mm"
   width="712.6626mm">
  <path
     id="path849"
     d="m 242.44316,305.22366 c -3.23323,-0.70686 -6.74436,-2.02176 -10.84281,-4.06061 -12.11535,-6.027 -20.53196,-16.42698 -24.2493,-29.96351 -1.49818,-5.45555 -1.61568,-16.29205 -0.23416,-21.59272 2.23862,-8.58919 5.98723,-15.33683 11.98021,-21.56483 8.33302,-8.65982 18.1583,-13.28418 29.91389,-14.07924 2.82237,-0.19087 5.08752,-0.59177 5.20978,-0.92205 0.34655,-0.936 9.30749,-55.75066 9.30749,-56.93444 0,-0.2954 -1.02233,-0.79515 -2.27179,-1.11055 -21.12384,-5.33217 -39.52222,-19.95956 -50.59688,-40.22636 -1.24508,-2.27847 -2.56842,-4.14267 -2.94082,-4.14267 -0.37238,0 -16.77255,5.74161 -36.44485,12.75913 l -35.76777,12.75914 0.16713,5.28156 c 0.31046,9.81159 -2.62652,17.31479 -9.52145,24.32463 -6.4693,6.57713 -13.54913,9.55476 -22.71803,9.55476 -9.278961,0 -15.860471,-2.73014 -22.495427,-9.33151 -5.002742,-4.97745 -7.635214,-9.65681 -9.076082,-16.13332 -3.549676,-15.9551 6.453505,-32.72655 22.407007,-37.56784 4.486804,-1.36157 12.489052,-1.50141 17.203922,-0.30063 7.11115,1.81106 15.02918,7.50364 18.96213,13.63261 1.42494,2.22057 1.92633,2.63162 2.86449,2.34837 1.39321,-0.42064 42.46554,-15.00085 59.55271,-21.14053 12.21795,-4.39011 12.4389,-4.49612 12.10423,-5.80808 -1.92534,-7.547407 -2.48703,-11.732954 -2.74947,-20.488726 -0.18984,-6.333111 -0.48728,-9.60292 -0.88654,-9.746004 -0.97655,-0.349956 -35.47075,-5.579411 -36.80068,-5.579123 -0.79333,1.72e-4 -1.99758,0.905621 -3.45435,2.597203 -3.00188,3.485819 -6.37884,5.063731 -10.85977,5.074341 -5.84602,0.01384 -11.07376,-3.267578 -13.4135,-8.419561 -1.16007,-2.554409 -1.32964,-7.426936 -0.37179,-10.682816 0.87429,-2.971832 5.79736,-7.894886 8.76919,-8.769178 4.61827,-1.358662 10.01022,-0.520962 13.56548,2.107552 1.87462,1.385966 4.56438,5.360521 5.10272,7.540103 0.2004,0.811268 0.60093,1.621256 0.89012,1.799974 0.7112,0.439552 38.01681,6.034855 38.45023,5.766983 0.18867,-0.1166 0.49879,-0.875758 0.68918,-1.687029 1.03153,-4.395626 3.96574,-12.275444 6.31735,-16.965382 11.34568,-22.627115 32.03009,-38.0779537 56.98908,-42.56966845 8.73294,-1.57161177 22.74848,-1.22206543 31.18847,0.77784055 22.73681,5.3876072 41.36769,19.9663289 52.53953,41.1123699 1.66974,3.160464 3.37352,5.746295 3.78619,5.746295 0.86926,0 24.50875,-8.173876 27.88859,-9.64311 l 2.2718,-0.987555 v -3.659526 c 0,-10.064806 5.28515,-18.513728 14.40484,-23.027765 3.92329,-1.9419524 4.07519,-1.970665 10.4235,-1.970665 6.36738,0 6.49017,0.023442 10.57455,2.019636 15.70818,7.677217 19.16554,27.703316 6.89715,39.950571 -7.48297,7.47008 -18.84103,9.41714 -28.16312,4.827882 -3.70213,-1.822559 -7.44119,-4.91086 -9.36453,-7.734726 -0.71382,-1.048076 -1.69153,-1.907236 -2.17268,-1.909244 -0.88344,-0.0037 -17.84175,5.908042 -25.98579,9.058746 -2.52978,0.978701 -4.40997,2.016474 -4.40997,2.434098 0,0.400407 0.36706,2.472883 0.81566,4.605506 3.58974,17.064922 0.94557,36.072043 -7.24522,52.081228 -1.75566,3.43154 -3.19211,6.41756 -3.19211,6.63561 0,0.38007 20.95804,15.72072 49.5763,36.28834 7.4222,5.33425 13.82763,9.69865 14.23432,9.69865 0.40666,0 2.15159,-0.65106 3.8776,-1.4468 13.65766,-6.29657 27.72698,8.21906 21.00487,21.67119 -2.92666,5.85676 -7.70996,8.78876 -14.39217,8.82189 -4.86251,0.0241 -8.20351,-1.37649 -11.59362,-4.8602 -3.32083,-3.41252 -4.63079,-7.30459 -4.2722,-12.69349 l 0.28456,-4.27632 -7.31009,-5.31683 c -14.09332,-10.25043 -55.64235,-40.29625 -56.20343,-40.64302 -0.31173,-0.19266 -2.4153,1.61469 -4.67458,4.01633 -12.04875,12.80788 -28.43413,21.36224 -45.95876,23.99376 -2.11428,0.31748 -7.46178,0.57724 -11.88331,0.57724 -7.89948,0 -8.04391,0.0209 -8.31273,1.20272 -0.82082,3.60828 -8.83396,53.63486 -8.83396,55.15097 0,1.04269 0.54555,1.44459 3.34089,2.46121 12.63076,4.59365 21.65578,12.49816 27.14107,23.77139 3.86662,7.94655 4.50553,10.82707 4.50553,20.31249 0,9.14928 -0.62359,12.16397 -4.02039,19.43541 -5.73291,12.27233 -16.09561,21.1514 -29.0962,24.93044 -6.72336,1.95435 -15.74395,2.28725 -22.42143,0.82746 z m 21.49343,-9.29492 c 6.19527,-2.17315 9.14992,-4.04251 14.45537,-9.14566 4.26644,-4.10372 5.31252,-5.47376 7.34677,-9.62171 3.1691,-6.46192 3.98192,-9.95889 3.98192,-17.13102 0,-7.229 -0.81094,-10.66618 -4.09604,-17.3609 -3.45453,-7.04009 -9.03509,-12.66423 -16.04952,-16.1748 -6.74361,-3.37505 -11.43539,-4.34872 -19.32405,-4.01024 -10.41868,0.44707 -17.11491,3.44112 -24.70592,11.04665 -4.91082,4.92022 -8.03071,10.05689 -9.92634,16.34305 -1.37012,4.54342 -1.36607,15.83948 0.007,20.31247 1.67317,5.44955 5.12368,11.45622 8.85023,15.40656 5.36575,5.68801 11.01175,9.09571 18.37685,11.0916 5.59604,1.51648 15.63082,1.15668 21.08346,-0.756 z M 426.45274,186.60949 c 4.51221,-3.21298 3.84967,-10.72989 -1.15509,-13.10479 -2.42477,-1.15064 -4.34065,-1.09964 -6.9969,0.18623 -2.76456,1.33831 -4.03249,3.45833 -4.03249,6.74249 0,2.99209 1.53466,5.638 4.00904,6.912 2.14636,1.1051 6.08828,0.75026 8.17544,-0.73593 z M 107.44285,166.71645 c 7.53097,-1.22092 14.39153,-6.48491 17.71896,-13.59544 2.90436,-6.20647 2.71378,-14.44171 -0.48175,-20.81667 -1.94358,-3.87738 -6.5464,-8.43879 -10.45906,-10.36499 -12.23135,-6.02147 -26.254844,-1.20457 -32.336901,11.10733 -1.926404,3.89961 -1.970008,4.12461 -1.970008,10.161 0,5.82174 0.09626,6.37629 1.691561,9.74359 3.460009,7.30335 9.646153,12.1605 17.551823,13.78111 3.042255,0.62364 4.355945,0.62111 8.285375,-0.0159 z m 186.92209,-19.17174 c 12.74373,-2.5991 23.0678,-7.69051 32.78505,-16.16824 16.88653,-14.73252 25.87916,-37.458919 23.54516,-59.503878 -3.64961,-34.470795 -30.00991,-60.50274 -64.18172,-63.382227 -31.92126,-2.6898441 -61.5379,16.526241 -72.36732,46.953881 -5.0649,14.230963 -5.0614,32.066341 0.009,46.220174 9.02542,25.19381 30.61047,42.84361 57.12388,46.70943 6.3291,0.92283 16.24129,0.56682 23.08588,-0.82914 z M 152.89615,63.845457 c 1.77898,-0.919935 3.18974,-3.280114 3.18974,-5.336339 0,-5.239136 -6.74807,-7.920543 -10.30055,-4.093025 -4.74694,5.114388 0.92094,12.630285 7.11081,9.429364 z M 417.15097,48.4043 c 5.29135,-2.588824 8.357,-7.305961 8.76025,-13.479561 0.3365,-5.151419 -0.80219,-8.454641 -4.19367,-12.165458 -3.44705,-3.771612 -6.94682,-5.332968 -11.99288,-5.350386 -4.48291,-0.01548 -8.62364,1.650982 -11.66883,4.696172 -3.11627,3.116273 -4.25035,5.84456 -4.52726,10.891463 -0.22688,4.134416 -0.13235,4.645604 1.45523,7.87047 2.16993,4.407728 6.10942,7.755176 10.46456,8.891876 3.08957,0.806387 8.58616,0.170159 11.7026,-1.354576 z"
     style="fill:#fea621;fill-opacity:1;stroke:none;stroke-width:10.69078064;stroke-linecap:square;stroke-linejoin:miter;stroke-miterlimit:4;stroke-dasharray:none;stroke-opacity:1;paint-order:normal" />
  <path
     id="path851"
     d="m 7.0596202,303.74948 c -1.7014301,-0.98853 -1.4982301,-6.3586 -0.2757501,-7.38576 3.9751499,-0.0953 7.9503299,-0.19063 11.9254799,-0.28594 -0.089,-38.47689 0.28387,-76.95242 0.70948,-115.42649 -6.47295,0 -12.9458699,0 -19.41883,0 0,-2.49452 0,-4.98903 0,-7.48355 9.4435401,0 18.88705,0 28.330581,0 0.0951,26.813 -0.269449,53.63361 0.381478,80.44005 3.170323,-0.41658 8.142021,-6.30888 11.91069,-8.85536 7.939622,-6.75269 16.071162,-13.30878 23.708651,-20.3993 -3.7475,-0.6926 -7.61216,-0.30191 -11.412029,-0.40417 0,-2.49452 0,-4.98904 0,-7.48356 11.225321,0 22.45066,0 33.675981,0 0,2.49452 0,4.98904 0,7.48356 -3.414162,0.13866 -7.032072,-0.27602 -10.319652,0.20634 -12.658349,10.87911 -25.54832,21.49719 -37.92461,32.69816 14.194372,13.09082 28.39395,26.17605 42.6316,39.21982 3.118141,0.013 6.23628,0.0257 9.354421,0.0384 0,2.44007 0,4.88014 0,7.3202 -11.203009,0.59299 -22.506041,1.30128 -33.67595,0.018 0.202779,-2.83681 -1.179751,-8.02542 3.450669,-7.31379 2.85522,-0.24477 11.116631,1.09185 5.23171,-2.86571 -12.069019,-11.27651 -24.449508,-22.21309 -36.74568,-33.24008 -1.1371,11.98505 -0.60878,24.05584 -0.80182,36.08137 4.410501,0.17605 8.967841,-0.48112 13.25658,0.64142 2.71322,4.93395 -1.124799,8.51676 -6.12875,7.15931 -9.28315,0.12867 -18.59426,0.35706 -27.8642498,-0.1629 z"
     style="fill:#317f70;fill-opacity:1;stroke:none;stroke-width:10.69078064;stroke-linecap:square;stroke-linejoin:miter;stroke-miterlimit:4;stroke-dasharray:none;stroke-opacity:1;paint-order:normal" />
  <path
     id="path853"
     d="m 104.63652,303.74694 c -2.88264,-1.29164 -2.2007,-9.32571 2.50007,-7.5796 2.89619,-0.0944 5.79435,-0.0419 8.69151,-0.0556 1.04619,-24.03842 0.59891,-48.10845 0.70276,-72.16277 -4.98903,0 -9.97807,0 -14.9671,0 0,-2.49452 0,-4.98904 0,-7.48356 8.01809,0 16.03615,0 24.05424,0 0.16159,5.67651 -0.43725,11.33457 -0.84576,16.97212 3.03604,-4.21433 5.46589,-9.05914 9.76714,-12.24515 8.50504,-6.80894 20.29587,-7.87494 30.68273,-5.91672 8.54659,1.60778 15.25611,8.4739 17.92904,16.57437 2.9306,7.31684 1.67449,15.36152 2.00644,23.04008 -0.016,13.74058 -0.0725,27.48108 -0.10877,41.22163 4.31821,0.0604 8.66018,-0.18856 12.95559,0.32446 1.52828,1.87981 0.59819,4.70236 0.84552,7.01017 -11.49117,1.2487 -23.1023,0.60703 -34.6239,0.0486 -2.18189,0.45476 -0.80743,-2.31434 -1.0791,-3.59119 0.37671,-1.30426 -0.75756,-4.15023 1.4791,-3.55671 3.70522,-0.0894 7.41047,-0.17881 11.1157,-0.26819 0.26389,-17.87419 1.27066,-35.77772 0.10827,-53.63512 -0.35568,-7.64649 -4.53271,-15.85378 -12.29262,-18.17981 -5.20669,-1.97067 -10.94166,-1.47156 -16.33879,-0.75256 -8.75276,2.59721 -15.82582,9.56718 -18.95486,18.101 -3.03241,7.64558 -1.95741,16.10778 -2.40937,24.14215 -0.12983,10.10766 -0.24644,20.21549 -0.37023,30.32321 4.41004,0.10041 8.82012,0.20084 13.23017,0.30125 0.54951,3.01027 1.42322,8.35295 -3.26639,7.54084 -10.26549,0.1661 -20.55339,0.26162 -30.81139,-0.17291 z"
     style="fill:#317f70;fill-opacity:1;stroke:none;stroke-width:10.69078064;stroke-linecap:square;stroke-linejoin:miter;stroke-miterlimit:4;stroke-dasharray:none;stroke-opacity:1;paint-order:normal" />
  <path
     id="path855"
     d="m 334.24561,304.43835 c -13.11468,-3.71671 -21.61024,-16.41639 -23.65901,-29.4024 -2.97829,-17.3733 -0.0445,-37.37697 13.41723,-49.87026 10.0439,-9.64643 24.87446,-12.43451 38.26748,-10.04787 3.93697,-0.80066 13.03216,6.36315 12.23939,-0.80555 0.31263,-11.12829 0.21389,-22.26239 0.28477,-33.39371 -6.06042,-0.19311 -12.15681,0.0735 -18.18468,-0.64135 -1.74953,-1.4177 -2.11765,-8.33612 1.74987,-7.10947 8.5231,0 17.04623,0 25.56936,0 -0.14494,40.98133 -0.28988,81.96265 -0.43481,122.94399 4.62965,0.0649 9.28372,-0.19651 13.89136,0.32446 0.7439,1.46915 1.89497,6.5478 -0.10837,7.07488 -7.71888,0.50887 -15.58004,1.19784 -23.24719,-0.0798 0.24214,-5.20198 0.48426,-10.40392 0.72641,-15.60589 -4.26696,7.1588 -9.88436,14.18669 -18.28736,16.47555 -6.82726,1.77014 -14.19982,1.94281 -21.09603,0.48233 l -1.12842,-0.34589 z m 15.56795,-7.27803 c 10.64419,-0.7602 19.04614,-9.34122 21.93097,-19.24087 3.98325,-12.59652 2.70121,-26.01282 2.94921,-39.02429 -0.98042,-4.4582 2.3088,-12.3563 -3.79135,-13.52727 -12.52601,-3.36235 -27.33008,-4.34599 -38.34913,3.68234 -11.22273,8.47958 -13.65856,23.81551 -13.0269,37.00811 0.65165,10.79791 3.8957,23.50574 14.55346,28.56635 4.85847,2.41125 10.34434,3.68107 15.73374,2.53563 z"
     style="fill:#317f70;fill-opacity:1;stroke:none;stroke-width:10.69078064;stroke-linecap:square;stroke-linejoin:miter;stroke-miterlimit:4;stroke-dasharray:none;stroke-opacity:1;paint-order:normal" />
  <path
     id="path857"
     d="m 411.19465,303.74313 c -1.49799,0.16082 -2.09005,-0.47881 -1.73726,-1.95328 0.13301,-2.0736 -0.78335,-5.91958 2.40755,-5.53474 3.88213,-0.36674 7.84125,0.1992 11.68284,-0.45329 1.4238,-2.57902 0.37475,-6.14172 0.77158,-9.09791 0.26487,-20.91732 0.30387,-41.83655 0.43574,-62.75495 -5.4556,0 -10.91118,0 -16.36678,0 0,-2.49452 0,-4.98904 0,-7.48356 8.53262,0 17.06525,0 25.59788,0 -0.2155,26.54877 -0.43101,53.09756 -0.64648,79.64633 4.94146,0.0681 9.90978,-0.20429 14.82807,0.32446 1.41835,1.55903 0.65981,3.99446 0.8455,5.9758 0.50668,1.6588 -1.54186,0.88199 -2.50709,1.13778 -11.75536,0.58352 -23.554,0.70327 -35.31155,0.19336 z"
     style="fill:#317f70;fill-opacity:1;stroke:none;stroke-width:10.69078064;stroke-linecap:square;stroke-linejoin:miter;stroke-miterlimit:4;stroke-dasharray:none;stroke-opacity:1;paint-order:normal" />
  <path
     id="path859"
     d="m 489.04903,305.68314 c -9.12161,-0.65567 -18.16089,-5.69923 -21.97467,-14.28401 -3.42734,-6.25263 -3.31447,-13.49372 -3.29804,-20.41046 -0.0614,-15.67982 0.0116,-31.35982 0.0209,-47.03971 -4.928,0 -9.85602,0 -14.78402,0 0,-2.49452 0,-4.98904 0,-7.48356 8.01523,0 16.03047,0 24.0457,0 -0.1179,19.53464 -0.74149,39.07383 -0.29437,58.60584 0.0468,7.71716 2.8389,16.41562 10.33097,19.92458 7.69959,3.63503 17.15733,3.15389 24.74037,-0.53583 9.92071,-5.5571 14.30848,-17.3726 14.58719,-28.2547 0.93149,-14.06537 0.99224,-28.16767 1.28254,-42.25633 -5.11953,0 -10.23903,0 -15.35856,0 0,-2.49452 0,-4.98904 0,-7.48356 8.14036,0 16.28072,0 24.42107,0 -0.17206,26.54877 -0.34414,53.09756 -0.5162,79.64633 4.22209,0.0603 8.46831,-0.18733 12.66732,0.32446 1.52766,1.87727 0.5986,4.69691 0.84553,7.00219 -6.90134,0.62416 -13.87091,1.01074 -20.78019,0.35735 -3.54486,-1.98321 -0.84934,-7.95888 -1.09273,-11.56806 0.47157,-2.33325 0.93303,-7.65482 -1.37361,-3.01088 -5.50764,9.74138 -16.0012,16.65833 -27.3491,16.68807 -2.042,0.0734 -4.08824,-0.0119 -6.12021,-0.22172 z"
     style="fill:#317f70;fill-opacity:1;stroke:none;stroke-width:10.69078064;stroke-linecap:square;stroke-linejoin:miter;stroke-miterlimit:4;stroke-dasharray:none;stroke-opacity:1;paint-order:normal" />
  <path
     id="path863"
     d="m 561.40014,303.75258 c -3.36309,-3.30552 -0.57624,-9.81488 4.87122,-7.63424 1.95551,-0.51421 5.84014,0.95687 6.6417,-0.72064 0.44331,-23.72426 0.80992,-47.45426 0.38058,-71.18149 -4.86011,-0.0989 -9.72021,-0.19778 -14.58032,-0.29665 -1.43825,-4.47106 -0.0639,-9.01738 5.7176,-7.44593 6.07232,-0.0182 12.14477,-0.004 18.21714,-0.008 0.22249,5.65759 -0.75158,11.27117 -0.91448,16.9035 4.95805,-7.97505 11.86778,-15.68721 21.40453,-17.89466 10.767,-2.84724 23.99554,-0.69315 30.69262,9.01494 2.9905,2.83829 4.63674,13.24725 7.84775,5.33888 5.2904,-9.06585 15.09366,-15.29873 25.69808,-15.35508 10.55576,-1.00515 22.39005,3.04684 27.31691,13.06336 5.77373,9.64916 3.7869,21.12037 4.12218,31.78519 -0.053,12.2634 -0.11192,24.52679 -0.16775,36.7902 4.29392,0.186 8.71789,-0.47369 12.9054,0.51443 3.43749,5.54193 -1.74972,8.51873 -6.88044,7.36007 -9.49724,0.28189 -18.99507,-0.0351 -28.48046,-0.50477 -0.69231,-4.47628 0.56957,-9.05693 6.34267,-7.46998 1.97233,-0.69583 6.4698,1.11717 6.77389,-1.23804 0.15822,-16.89156 1.07857,-33.79691 0.42865,-50.67997 -0.54914,-8.72409 -5.34445,-18.28505 -14.54259,-20.32552 -8.70772,-2.45528 -18.70749,-0.20714 -24.70189,6.80419 -6.96019,6.6344 -8.91858,16.47372 -9.0859,25.70961 -0.63725,13.17715 -0.54629,26.37443 -0.7252,39.56269 4.44233,0.1782 8.88466,0.35637 13.32699,0.53454 0.10427,2.35635 0.20851,4.71268 0.31276,7.06903 -10.55542,1.27527 -21.27493,0.56518 -31.87957,0.19712 -2.19503,-0.0975 -5.0905,0.44 -3.91445,-2.71341 0.34271,-1.98213 -0.83675,-5.51759 2.34344,-4.60404 3.47331,-0.0833 6.94661,-0.16656 10.41992,-0.24985 -0.16256,-18.42574 0.40651,-36.87454 -0.48627,-55.28087 -0.55327,-9.78321 -9.48738,-18.65143 -19.52284,-17.64863 -6.30248,-0.79484 -12.33414,1.56059 -17.25115,5.40027 -5.71937,5.14311 -9.44952,12.45832 -11.0408,19.90149 -0.14983,15.88726 -0.29969,31.77447 -0.44955,47.66169 4.31937,0.21137 8.92707,-0.5556 13.0303,0.64283 -0.10223,1.94154 2.09508,7.22127 -1.32805,6.93783 -10.90726,0.59922 -21.92602,0.45304 -32.84262,0.0601 z"
     style="fill:#317f70;fill-opacity:1;stroke:none;stroke-width:10.69078064;stroke-linecap:square;stroke-linejoin:miter;stroke-miterlimit:4;stroke-dasharray:none;stroke-opacity:1;paint-order:normal" />
</svg>
