<?xml version="1.0" encoding="UTF-8" standalone="no"?>
<!-- Generated by IcoMoon.io -->

<svg
   xmlns:dc="http://purl.org/dc/elements/1.1/"
   xmlns:cc="http://creativecommons.org/ns#"
   xmlns:rdf="http://www.w3.org/1999/02/22-rdf-syntax-ns#"
   xmlns:svg="http://www.w3.org/2000/svg"
   xmlns="http://www.w3.org/2000/svg"
   xmlns:sodipodi="http://sodipodi.sourceforge.net/DTD/sodipodi-0.dtd"
   xmlns:inkscape="http://www.inkscape.org/namespaces/inkscape"
   version="1.1"
   width="400"
   height="400"
   viewBox="0 0 400 400"
   id="svg4530"
   sodipodi:docname="logo.svg"
   inkscape:version="0.92.3 (2405546, 2018-03-11)">
  <metadata
     id="metadata4536">
    <rdf:RDF>
      <cc:Work
         rdf:about="">
        <dc:format>image/svg+xml</dc:format>
        <dc:type
           rdf:resource="http://purl.org/dc/dcmitype/StillImage" />
        <dc:title></dc:title>
      </cc:Work>
    </rdf:RDF>
  </metadata>
  <defs
     id="defs4534" />
  <sodipodi:namedview
     pagecolor="#ffffff"
     bordercolor="#666666"
     borderopacity="1"
     objecttolerance="10"
     gridtolerance="10"
     guidetolerance="10"
     inkscape:pageopacity="0"
     inkscape:pageshadow="2"
     inkscape:window-width="3000"
     inkscape:window-height="1875"
     id="namedview4532"
     showgrid="false"
     inkscape:zoom="3.4692427"
     inkscape:cx="173.35477"
     inkscape:cy="200.18763"
     inkscape:window-x="-13"
     inkscape:window-y="-13"
     inkscape:window-maximized="1"
     inkscape:current-layer="layer2" />
  <g
     inkscape:groupmode="layer"
     id="layer3"
     inkscape:label="Layer 3">
    <rect
       style="opacity:1;fill:#40bd9f;fill-opacity:1;stroke:none"
       id="rect4567"
       width="400"
       height="400"
       x="0"
       y="0" />
  </g>
  <g
     inkscape:groupmode="layer"
     id="layer1"
     inkscape:label="Layer 1">
    <rect
       style="opacity:1;fill:#00967f;fill-opacity:0.94117647;stroke:none;stroke-width:0.95880771"
       id="rect4558"
       width="200"
       height="400"
       x="200"
       y="0" />
  </g>
  <g
     inkscape:groupmode="layer"
     id="layer2"
     inkscape:label="Layer 2">
    <path
       style="opacity:1;fill:#eaeaea;fill-opacity:1;stroke:none;stroke-width:0.28824735"
       d="m 190.21724,136.46575 c -45.29472,-0.89609 -85.42254,-9.48532 -99.27385,-21.24924 -1.963124,-1.66728 -3.198432,-3.57369 -3.197001,-4.93384 0.0037,-3.49904 6.86969,-8.55997 17.149641,-12.640983 16.68839,-6.62507 40.89736,-11.042765 71.48534,-13.044756 7.65119,-0.500773 30.82833,-0.673052 39.92226,-0.296748 36.80992,1.523183 67.36953,7.308334 84.81028,16.055207 4.31308,2.16309 6.92396,3.96586 9.07715,6.26763 1.8296,1.95585 2.35236,3.17156 1.98801,4.62325 -0.28896,1.15133 -2.30635,3.45424 -4.40092,5.02383 -14.76436,11.06372 -54.75986,19.41738 -96.2306,20.09919 -4.75608,0.0782 -9.36083,0.17423 -10.23278,0.21341 -0.87195,0.0392 -5.86584,-0.0134 -11.09753,-0.11695 z"
       id="path4550"
       inkscape:connector-curvature="0" />
    <path
       style="opacity:1;fill:#eaeaea;fill-opacity:1;stroke:none;stroke-width:0.28824735"
       d="m 182.00219,194.08334 c -35.93777,-1.71149 -66.0796,-7.49891 -82.871109,-15.91177 -5.381818,-2.6964 -8.215392,-4.75919 -10.304842,-7.50174 l -1.080928,-1.41879 V 151.8374 134.42376 l 1.104754,0.69741 c 1.91021,1.20586 6.682739,3.49622 10.42514,5.00308 16.234025,6.53655 39.623765,11.29557 66.152765,13.45982 11.10558,0.90601 15.0152,1.06823 29.54536,1.22597 18.92416,0.20543 31.63772,-0.31664 47.56081,-1.95302 29.06042,-2.98649 54.81292,-9.60039 68.26553,-17.53234 l 1.49033,-0.87872 v 17.12447 c 0,10.78429 -0.10734,17.40679 -0.28992,17.887 -0.47008,1.23642 -3.42628,4.11858 -5.9074,5.75948 -14.28314,9.44613 -44.26608,16.18241 -82.87111,18.61867 -6.31902,0.39877 -34.49247,0.56812 -41.21938,0.24776 z"
       id="path4552"
       inkscape:connector-curvature="0" />
    <path
       style="opacity:1;fill:#eaeaea;fill-opacity:1;stroke:none;stroke-width:0.28824735"
       d="m 188.34364,251.85459 c -6.26268,-0.21905 -15.76376,-0.7414 -20.75381,-1.141 -36.9809,-2.96142 -66.88335,-10.98705 -77.208129,-20.72217 -2.824976,-2.66364 -2.63639,-1.18166 -2.63639,-20.71774 v -17.11985 l 4.972267,2.49288 c 18.361332,9.20559 47.504022,15.17648 84.528532,17.31861 13.5914,0.78635 36.08752,0.64562 50.44329,-0.31556 34.779,-2.32862 63.16161,-8.46962 80.49307,-17.41587 l 4.10753,-2.12025 v 17.21615 17.21614 l -0.81806,1.28149 c -4.78248,7.49171 -24.73169,15.0661 -51.51838,19.56067 -11.54585,1.9373 -24.51444,3.30668 -38.46148,4.06125 -5.48921,0.29698 -28.27845,0.57558 -33.14844,0.40525 z"
       id="path4554"
       inkscape:connector-curvature="0" />
    <path
       style="opacity:1;fill:#eaeaea;fill-opacity:1;stroke:none;stroke-width:0.28824735"
       d="m 189.49663,309.42323 c -33.64354,-0.75664 -64.80178,-5.71737 -84.45648,-13.44639 -8.094822,-3.18321 -14.41872,-7.1861 -16.4748,-10.42821 l -0.820039,-1.29306 v -17.23841 c 0,-9.48112 0.06588,-17.23841 0.146394,-17.23841 0.08052,0 1.280346,0.64378 2.666288,1.43063 3.3894,1.92427 10.184877,4.80091 15.635147,6.6186 28.20027,9.40497 71.65285,13.89299 114.4342,11.81939 38.4648,-1.86438 71.17484,-8.6911 89.06906,-18.58907 1.27228,-0.70375 2.37633,-1.27955 2.45342,-1.27955 0.0771,0 0.14018,7.72635 0.14018,17.16967 0,12.33448 -0.0929,17.34697 -0.32996,17.79927 -2.15452,4.11117 -10.12067,8.92846 -21.09862,12.75876 -18.86533,6.58227 -49.1592,11.20246 -77.34201,11.79561 -3.93817,0.0829 -8.84656,0.19146 -10.90753,0.24128 -2.06097,0.0498 -7.96283,-0.004 -13.11525,-0.12011 z"
       id="path4556"
       inkscape:connector-curvature="0" />
  </g>
</svg>
