<svg id="Layer_1" data-name="Layer 1" xmlns="http://www.w3.org/2000/svg" viewBox="0 0 1024 1024"><defs><style>.cls-1{fill:#00461e;}.cls-2{fill:#fff;}.cls-3{fill:#c8fa64;}</style></defs><title>social</title><rect class="cls-1" width="1024" height="1024"/><path class="cls-2" d="M307.38,294q16.22,11.93,16.22,32.72,0,18.58-9.84,31.61t-24.26,15.8v1.39q13.31,5.27,21.9,18.3T320,425.13q0,15.25,1.67,23T326.1,459a17.82,17.82,0,0,0,8,4.72v7.76a34.11,34.11,0,0,1-13,2.49q-13.31,0-20.8-7.9t-7.49-29.81q0-22.46-9.29-35.08t-23.15-12.62H212.13v83.74H185V282h81Q291.15,282,307.38,294Zm-95.25,12.76v57.12H266.2a31,31,0,0,0,21.07-8,25.5,25.5,0,0,0,9.15-20v-1.11q0-12.2-8.32-20.1t-21.9-7.9Z"/><path class="cls-2" d="M577.12,282l-3.61,24.68h-94v56h85.13v24.68H479.52v60.17h95.66l3.88,24.68H452.34V282Z"/><path class="cls-2" d="M808.75,287.87a60.47,60.47,0,0,1,25.37,24.4q8.87,15.8,8.87,36.6H815.82q0-21.35-11.79-33.14t-34-11.78q-25,0-38,15.39t-13,45.34v25q0,29.94,12.89,45.34t38.13,15.39q24.13,0,35.22-12.06t11.09-38.4v-3.6H762.57v-24.4H843v64.89q0,23,1.66,35.49H828.57A168.78,168.78,0,0,1,823,449.53Q805,475,770.06,475q-36.88,0-57.54-22.6t-20.66-62.8v-25q0-39.93,20.66-62.66t57.54-22.74Q792.25,279.28,808.75,287.87Z"/><path class="cls-3" d="M290.48,568.38a72.37,72.37,0,0,1,29.38,27.91q10.9,18.35,10.9,43.33v20.74q0,25-10.9,43.33a72.41,72.41,0,0,1-29.38,27.91q-18.48,9.56-41.07,9.57H180.29V558.81h69.12Q272,558.81,290.48,568.38Zm-69,140.1h27.91q17,0,27.65-11t10.63-31.23V633.77q0-20.2-10.63-31.23t-27.65-11H221.5Z"/><path class="cls-3" d="M531.14,671.26v69.92H490.2V671.26L427.72,558.81H474l38,72.31h1.33l38-72.31h42Z"/><path class="cls-3" d="M749.2,657.17q-2.93-4.25-8-12.63l-6.64-11-1.06.8V741.18H696V558.81h34.83l57.42,84.54,8,12.49q4.25,7.45,6.64,10.9l.8-.8V558.81h37.48V741.18H806.36Z"/></svg>