<svg xmlns="http://www.w3.org/2000/svg" xml:space="preserve" width="217.2" height="51.1" viewBox="125 75 666 51">
  <path d="M414 25v43c-5-7-9-14-14-19a72 72 0 0 0-54-24h-72v47a78 78 0 1 0 0 60v44l5 1h62c22-1 43-7 58-24l14-19v43h73V25h-72Zm145 30c-3 4-7 6-14 6-6 0-11-2-14-6-3-3-4-8-4-13 0-6 1-10 4-14s8-6 14-6c7 0 11 2 14 6s5 8 5 14c0 5-2 10-5 13zm-7-5 2-8-2-9c-2-2-4-3-7-3s-5 1-6 3c-2 2-3 5-3 9 0 3 1 6 3 8 1 2 3 3 6 3s5-1 7-3zm50-23c3 3 4 8 4 14 0 7-1 11-4 15-3 3-7 5-12 5l-7-2-3-4v19h-10V23h10v6l3-4c2-2 5-2 8-2 4 0 8 1 11 4zm-8 7c-1-2-3-3-6-3-4 0-6 1-7 5l-1 6c0 5 1 8 3 9l5 2 6-3 2-8-2-8zm43-10 6 5 3 8v7h-27c0 4 2 7 4 8l5 1 6-1 2-3h10l-4 7c-3 3-8 5-14 5-5 0-9-1-13-4-3-3-5-8-5-15 0-6 1-11 5-15 3-3 7-5 13-5l8 2zm-15 8-2 6h16l-2-6-6-2-6 2zm58-7c3 2 4 6 4 10v25h-10V38l-1-5c0-2-2-3-5-3s-5 2-6 5l-1 5v20h-10V23h9v6l4-4c2-2 4-3 7-3 4 0 7 1 9 3zM548 82l4 4V68h10v50h-9v-5l-5 4-6 2c-5 0-8-2-11-5-3-4-5-8-5-14s2-11 5-14a14 14 0 0 1 17-4zm3 26 2-8c0-5-1-8-4-10l-5-1-6 3-2 8 2 8 6 3c3 0 5-1 7-3zm34-13h4l2-3-1-3-5-1-5 2-1 3h-10c1-3 1-6 3-8 3-3 7-5 13-5 4 0 8 1 11 3 3 1 5 4 5 9v23l2 1v2h-11v-2l-1-3-4 4-7 2c-3 0-6-1-8-3-3-2-4-4-4-8s2-8 6-10l8-2zm6 5-2 1h-2l-3 1-4 1-2 4 1 4 4 1 5-2c2-1 3-3 3-7zm14-12v-7h5V71h10v10h6v7h-6v22l4 1h2v7h-5c-4 0-7 0-9-2l-2-5V88zm41 7h4c2-1 2-2 2-3l-1-3-5-1-5 2-1 3h-9l2-8c3-3 7-5 13-5 4 0 8 1 11 3 3 1 5 4 5 9v23l2 1v2h-11v-5l-5 4-7 2c-3 0-6-1-8-3s-4-4-4-8 2-8 6-10l8-2zm6 5-2 1h-2l-3 1-4 1-2 4 1 4 4 1 5-2c2-1 3-3 3-7zm-113 34h-10v-8h10zm-10 5h10v36h-10zm48 2c3 2 4 5 4 10v24h-10v-22l-1-4c-1-2-2-3-5-3s-5 1-7 4v25h-10v-36h9v5l4-4 7-2c4 0 7 1 9 3zm20 23 2 3c1 2 3 2 6 2l5-1 1-2-1-3-10-2-9-4-2-7c0-3 1-6 4-9 2-2 6-3 11-3l11 2c3 2 5 5 5 10h-9l-1-3-6-2-4 1-2 2 2 3 10 2 8 4c2 2 3 5 3 7 0 4-1 7-4 9-3 3-7 4-12 4-6 0-10-2-13-4s-4-5-4-9zm27-18v-7h5v-10h10v10h6v7h-6v19l1 3 3 1h2v7h-5l-9-2-1-6v-22zm37-12h-10v-8h10zm-10 5h10v36h-10zm15 7v-7h5v-10h10v10h6v7h-6v22l4 1h2v7h-5l-9-2-2-6v-22zm36-7v22l1 5 5 2c3 0 6-1 7-4l1-5v-20h10v36h-10v-5 1l-2 2-4 2-5 1c-5 0-9-2-11-6l-1-9v-22zm29 7v-7h5v-10h10v10h6v7h-6v22l4 1h2v7h-5l-9-2-2-6v-22zm51-6c2 1 4 2 6 5l3 8v7h-27c0 4 2 6 4 8l5 1 6-2 2-2h10l-4 6c-3 4-8 6-14 6-5 0-9-2-13-5-3-3-5-8-5-14 0-7 1-12 5-15 3-3 7-5 13-5 3 0 6 0 8 2zm-15 8-2 6h16l-2-6c-2-2-4-2-6-2-3 0-5 0-6 2z"/>
</svg>