<?xml version="1.0" encoding="UTF-8"?>
<!-- Generator: Adobe Illustrator 19.2.1, SVG Export Plug-In . SVG Version: 6.00 Build 0)  -->
<svg version="1.1" id="Layer_1" xmlns="http://www.w3.org/2000/svg" xmlns:xlink="http://www.w3.org/1999/xlink" width="300px" x="0px" y="0px" viewBox="125 75 920 312.2" style="enable-background:new 0 0 920 312.2;" xml:space="preserve">
<g id="Ebene_1">
	<g>
		<path d="M414.4,81.5c0,14.6,0,28.8,0,43.2c-4.8-6.8-8.8-13.8-14-19.5c-14.3-15.8-32.9-23.1-53.7-23.6c-23-0.6-46-0.2-69-0.2    c-0.7,0-1.4,0.2-2.7,0.3c0,14.6,0,29.1,0,42.4v4.3c-11.6-28.1-39.3-48-71.7-48c-42.8,0-77.5,34.7-77.5,77.5s34.7,77.5,77.5,77.5    c31.9,0,59.3-19.3,71.2-46.8c0,15.6,0,29.7,0,44.3c2.2,0.2,3.8,0.4,5.4,0.4c20.5,0,41.1,0.3,61.6-0.1c22.4-0.4,42.9-6.5,58.5-23.6    c5.3-5.8,9.3-12.8,14.1-19.5c0,14,0,28.2,0,43.2c24.9,0,48.9,0,73,0c0-50.6,0-101.2,0-151.7C463,81.5,439,81.5,414.4,81.5z"/>
		<g>
			<path d="M560.1,111.9c-3.1,3.8-7.8,5.7-14.1,5.7c-6.3,0-11-1.9-14.1-5.7c-3.1-3.8-4.6-8.4-4.6-13.8c0-5.3,1.5-9.8,4.6-13.7     c3.1-3.9,7.8-5.8,14.1-5.8c6.3,0,11,1.9,14.1,5.8s4.6,8.4,4.6,13.7C564.7,103.5,563.1,108.1,560.1,111.9z M552.4,106.6     c1.5-2,2.2-4.8,2.2-8.5s-0.7-6.5-2.2-8.5s-3.6-3-6.4-3s-4.9,1-6.5,3c-1.5,2-2.3,4.8-2.3,8.5s0.8,6.5,2.3,8.5s3.7,3,6.5,3     S550.9,108.6,552.4,106.6z"/>
			<path d="M602.3,83.7c3,3.2,4.5,7.8,4.5,13.9c0,6.4-1.5,11.3-4.4,14.7c-2.9,3.4-6.7,5.1-11.3,5.1c-2.9,0-5.4-0.7-7.3-2.2     c-1.1-0.8-2.1-2-3.1-3.5v19h-9.5V79.8h9.2v5.4c1-1.6,2.1-2.8,3.3-3.8c2.1-1.6,4.7-2.4,7.6-2.4C595.6,79,599.3,80.6,602.3,83.7z      M594.9,90.6c-1.3-2.2-3.4-3.3-6.3-3.3c-3.5,0-5.9,1.6-7.2,4.9c-0.7,1.7-1,4-1,6.6c0,4.2,1.1,7.2,3.4,9c1.4,1,3,1.5,4.8,1.5     c2.7,0,4.7-1,6.2-3.1c1.4-2.1,2.1-4.8,2.1-8.2C596.9,95.2,596.2,92.8,594.9,90.6z"/>
			<path d="M637.3,80.5c2.6,1.1,4.7,2.9,6.3,5.4c1.5,2.2,2.5,4.7,2.9,7.6c0.3,1.7,0.4,4.1,0.3,7.3h-26.6c0.1,3.7,1.4,6.2,3.8,7.7     c1.5,0.9,3.2,1.4,5.3,1.4c2.2,0,3.9-0.6,5.3-1.7c0.7-0.6,1.4-1.4,2-2.5h9.8c-0.3,2.2-1.4,4.4-3.5,6.6c-3.3,3.6-7.9,5.3-13.8,5.3     c-4.9,0-9.2-1.5-12.9-4.5c-3.7-3-5.6-7.9-5.6-14.6c0-6.3,1.7-11.2,5-14.6c3.4-3.4,7.7-5.1,13.1-5.1     C631.9,78.8,634.8,79.4,637.3,80.5z M623,88.8c-1.4,1.4-2.2,3.3-2.5,5.7h16.4c-0.2-2.5-1-4.5-2.5-5.8s-3.4-2-5.7-2     C626.3,86.7,624.4,87.4,623,88.8z"/>
			<path d="M681.2,81.9c2.4,2,3.6,5.3,3.6,9.8v24.6H675V94.1c0-1.9-0.3-3.4-0.8-4.4c-0.9-1.9-2.7-2.8-5.3-2.8     c-3.2,0-5.4,1.4-6.6,4.1c-0.6,1.5-0.9,3.3-0.9,5.6v19.8h-9.6V79.9h9.3v5.3c1.2-1.9,2.4-3.2,3.5-4.1c2-1.5,4.4-2.2,7.4-2.2     C675.7,78.9,678.8,79.9,681.2,81.9z"/>
			<path d="M549,138.1c1.7,1,3.1,2.3,4.2,4v-17.4h9.7v49.4h-9.3V169c-1.4,2.2-2.9,3.7-4.7,4.7c-1.7,1-3.9,1.5-6.5,1.5     c-4.3,0-7.9-1.7-10.8-5.2c-2.9-3.5-4.4-7.9-4.4-13.3c0-6.2,1.4-11.1,4.3-14.7c2.9-3.6,6.7-5.4,11.5-5.4     C545.3,136.7,547.2,137.2,549,138.1z M551.3,164.2c1.4-2,2.1-4.6,2.1-7.8c0-4.5-1.1-7.7-3.4-9.6c-1.4-1.2-3-1.7-4.8-1.7     c-2.8,0-4.8,1.1-6.2,3.2c-1.3,2.1-2,4.7-2,7.9c0,3.4,0.7,6.1,2,8.1c1.3,2,3.3,3,6.1,3C547.8,167.2,549.9,166.2,551.3,164.2z"/>
			<path d="M586,151.9c1.8-0.2,3.1-0.5,3.8-0.8c1.4-0.6,2.1-1.5,2.1-2.7c0-1.5-0.5-2.5-1.6-3.1s-2.6-0.9-4.6-0.9     c-2.3,0-3.9,0.6-4.9,1.7c-0.7,0.8-1.1,1.9-1.4,3.4h-9.2c0.2-3.2,1.1-5.8,2.7-7.9c2.5-3.2,6.9-4.8,13.1-4.8c4,0,7.6,0.8,10.7,2.4     c3.1,1.6,4.7,4.6,4.7,9V165c0,1.2,0,2.6,0.1,4.2c0.1,1.3,0.3,2.1,0.6,2.5c0.3,0.4,0.8,0.8,1.4,1.1v1.4h-10.4     c-0.3-0.7-0.5-1.4-0.6-2.1c-0.1-0.6-0.2-1.4-0.3-2.2c-1.3,1.4-2.9,2.7-4.6,3.7c-2.1,1.2-4.4,1.8-7,1.8c-3.3,0-6.1-0.9-8.2-2.8     c-2.2-1.9-3.3-4.6-3.3-8c0-4.5,1.7-7.7,5.2-9.8c1.9-1.1,4.7-1.9,8.4-2.3L586,151.9z M591.9,156.3c-0.6,0.4-1.2,0.7-1.9,0.9     c-0.6,0.2-1.5,0.5-2.6,0.7l-2.2,0.4c-2,0.4-3.5,0.8-4.4,1.3c-1.5,0.9-2.3,2.2-2.3,4.1c0,1.6,0.5,2.8,1.4,3.5s2,1.1,3.4,1.1     c2.1,0,4-0.6,5.8-1.8c1.8-1.2,2.7-3.4,2.7-6.6L591.9,156.3L591.9,156.3z"/>
			<path d="M606,144.7v-6.8h5.1v-10.2h9.5v10.2h5.9v6.8h-5.9V164c0,1.5,0.2,2.4,0.6,2.8c0.4,0.4,1.5,0.6,3.5,0.6c0.3,0,0.6,0,0.9,0     c0.3,0,0.6,0,1-0.1v7.1l-4.5,0.2c-4.5,0.2-7.6-0.6-9.3-2.3c-1.1-1.1-1.6-2.8-1.6-5.1v-22.5H606z"/>
			<path d="M647.1,151.9c1.8-0.2,3.1-0.5,3.8-0.8c1.4-0.6,2.1-1.5,2.1-2.7c0-1.5-0.5-2.5-1.6-3.1s-2.6-0.9-4.6-0.9     c-2.3,0-3.9,0.6-4.9,1.7c-0.7,0.8-1.1,1.9-1.4,3.4h-9.2c0.2-3.2,1.1-5.8,2.7-7.9c2.5-3.2,6.9-4.8,13.1-4.8c4,0,7.6,0.8,10.7,2.4     c3.1,1.6,4.7,4.6,4.7,9V165c0,1.2,0,2.6,0.1,4.2c0.1,1.3,0.3,2.1,0.6,2.5c0.3,0.4,0.8,0.8,1.4,1.1v1.4h-10.4     c-0.3-0.7-0.5-1.4-0.6-2.1c-0.1-0.6-0.2-1.4-0.3-2.2c-1.3,1.4-2.9,2.7-4.6,3.7c-2.1,1.2-4.4,1.8-7,1.8c-3.3,0-6.1-0.9-8.2-2.8     c-2.2-1.9-3.3-4.6-3.3-8c0-4.5,1.7-7.7,5.2-9.8c1.9-1.1,4.7-1.9,8.4-2.3L647.1,151.9z M652.9,156.3c-0.6,0.4-1.2,0.7-1.9,0.9     c-0.6,0.2-1.5,0.5-2.6,0.7l-2.2,0.4c-2,0.4-3.5,0.8-4.4,1.3c-1.5,0.9-2.3,2.2-2.3,4.1c0,1.6,0.5,2.8,1.4,3.5s2,1.1,3.4,1.1     c2.1,0,4-0.6,5.8-1.8c1.8-1.2,2.7-3.4,2.7-6.6L652.9,156.3L652.9,156.3z"/>
			<path d="M539.4,190.9h-9.7v-8.8h9.7V190.9z M529.7,195.3h9.7v36.6h-9.7V195.3z"/>
			<path d="M578.1,197.4c2.4,2,3.6,5.3,3.6,9.8v24.6h-9.8v-22.2c0-1.9-0.3-3.4-0.8-4.4c-0.9-1.9-2.7-2.8-5.3-2.8     c-3.2,0-5.4,1.4-6.6,4.1c-0.6,1.5-0.9,3.3-0.9,5.6v19.8h-9.6v-36.5h9.3v5.3c1.2-1.9,2.4-3.2,3.5-4.1c2-1.5,4.4-2.2,7.4-2.2     C572.7,194.4,575.7,195.4,578.1,197.4z"/>
			<path d="M598,220.2c0.2,1.7,0.6,2.9,1.3,3.6c1.2,1.3,3.4,1.9,6.6,1.9c1.9,0,3.4-0.3,4.5-0.8c1.1-0.6,1.7-1.4,1.7-2.5     s-0.4-1.9-1.3-2.5s-4.2-1.5-10-2.9c-4.2-1-7.1-2.3-8.8-3.9c-1.7-1.5-2.5-3.7-2.5-6.6c0-3.4,1.3-6.3,4-8.7     c2.7-2.4,6.4-3.6,11.2-3.6c4.6,0,8.3,0.9,11.2,2.7s4.5,5,5,9.4h-9.6c-0.1-1.2-0.5-2.2-1-2.9c-1.1-1.3-2.8-1.9-5.4-1.9     c-2.1,0-3.6,0.3-4.5,1c-0.9,0.6-1.3,1.4-1.3,2.3c0,1.1,0.5,1.9,1.4,2.4s4.3,1.4,10,2.6c3.8,0.9,6.7,2.2,8.6,4.1     c1.9,1.8,2.8,4.1,2.8,6.9c0,3.6-1.3,6.6-4,8.9c-2.7,2.3-6.9,3.4-12.5,3.4c-5.8,0-10-1.2-12.8-3.6c-2.7-2.4-4.1-5.5-4.1-9.3     L598,220.2L598,220.2z"/>
			<path d="M625.1,202.4v-6.8h5.1v-10.2h9.5v10.2h5.9v6.8h-5.9v19.3c0,1.5,0.2,2.4,0.6,2.8c0.4,0.4,1.5,0.6,3.5,0.6     c0.3,0,0.6,0,0.9,0s0.6,0,1-0.1v7.1l-4.5,0.2c-4.5,0.2-7.6-0.6-9.3-2.3c-1.1-1.1-1.6-2.8-1.6-5.1v-22.5H625.1z"/>
			<path d="M661.5,190.9h-9.7v-8.8h9.7V190.9z M651.8,195.3h9.7v36.6h-9.7V195.3z"/>
			<path d="M667,202.4v-6.8h5.1v-10.2h9.5v10.2h5.9v6.8h-5.9v19.3c0,1.5,0.2,2.4,0.6,2.8c0.4,0.4,1.5,0.6,3.5,0.6c0.3,0,0.6,0,0.9,0     c0.3,0,0.6,0,1-0.1v7.1l-4.5,0.2c-4.5,0.2-7.6-0.6-9.3-2.3c-1.1-1.1-1.6-2.8-1.6-5.1v-22.5H667z"/>
			<path d="M703.2,195.3v22c0,2.1,0.2,3.6,0.7,4.7c0.9,1.9,2.6,2.8,5.1,2.8c3.2,0,5.5-1.3,6.7-4c0.6-1.4,0.9-3.3,0.9-5.7v-19.9h9.7     v36.6H717v-5.2c-0.1,0.1-0.3,0.4-0.7,1s-0.8,1-1.3,1.5c-1.5,1.3-2.9,2.3-4.3,2.7c-1.4,0.5-3,0.7-4.9,0.7c-5.4,0-9-1.9-10.9-5.8     c-1-2.1-1.6-5.3-1.6-9.5v-22L703.2,195.3L703.2,195.3z"/>
			<path d="M731.8,202.4v-6.8h5.1v-10.2h9.5v10.2h5.9v6.8h-5.9v19.3c0,1.5,0.2,2.4,0.6,2.8c0.4,0.4,1.5,0.6,3.5,0.6     c0.3,0,0.6,0,0.9,0c0.3,0,0.6,0,1-0.1v7.1l-4.5,0.2c-4.5,0.2-7.6-0.6-9.3-2.3c-1.1-1.1-1.6-2.8-1.6-5.1v-22.5H731.8z"/>
			<path d="M782.3,196c2.6,1.1,4.7,2.9,6.3,5.4c1.5,2.2,2.5,4.7,2.9,7.6c0.3,1.7,0.4,4.1,0.3,7.3h-26.6c0.1,3.7,1.4,6.2,3.8,7.7     c1.5,0.9,3.2,1.4,5.3,1.4c2.2,0,3.9-0.6,5.3-1.7c0.7-0.6,1.4-1.4,2-2.5h9.8c-0.3,2.2-1.4,4.4-3.5,6.6c-3.3,3.6-7.9,5.3-13.8,5.3     c-4.9,0-9.2-1.5-12.9-4.5c-3.7-3-5.6-7.9-5.6-14.6c0-6.3,1.7-11.2,5-14.6c3.4-3.4,7.7-5.1,13.1-5.1     C776.9,194.3,779.7,194.9,782.3,196z M768,204.3c-1.4,1.4-2.2,3.3-2.5,5.7h16.4c-0.2-2.5-1-4.5-2.5-5.8s-3.4-2-5.7-2     C771.2,202.2,769.3,202.9,768,204.3z"/>
		</g>
	</g>
</g>
<g id="Layer_2">
</g>
</svg>