<svg id="Layer_1" data-name="Layer 1" xmlns="http://www.w3.org/2000/svg" viewBox="0 0 1024 1024"><defs><style>.cls-1{fill:#00461e;}.cls-2{fill:#c8fa64;}.cls-3{fill:#fff;}</style></defs><title>square-withBG</title><rect class="cls-1" width="1024" height="1024"/><path class="cls-2" d="M220.73,559.08a50.1,50.1,0,0,1,20.34,19.32q7.54,12.7,7.55,30v14.36q0,17.3-7.55,30a50.13,50.13,0,0,1-20.34,19.32,60.93,60.93,0,0,1-28.43,6.63H144.44V552.46h47.85A60.88,60.88,0,0,1,220.73,559.08Zm-47.76,97h19.32q11.77,0,19.14-7.64t7.36-21.62V604.35q0-14-7.36-21.62t-19.14-7.64H173Z"/><path class="cls-2" d="M422.61,630.3v48.4H394.27V630.3L351,552.46h32l26.32,50.06h.92l26.32-50.06h29.08Z"/><path class="cls-2" d="M608.86,620.55q-2-2.94-5.52-8.74l-4.6-7.64-.73.55v74h-26V552.46h24.11L635.92,611l5.52,8.65q2.94,5.16,4.6,7.55l.55-.55V552.46h25.95V678.71H648.43Z"/><path class="cls-2" d="M860.17,653.86H809.93l-8.83,24.85H773.67L819.5,552.46h33.86l45.83,126.25H869.37Zm-42.51-21.53h35q-7-20.79-16.93-49.51h-.92Z"/><path class="cls-2" d="M220.51,879.91V787h-.92l-15,66.3H174.78l-15-66.3h-.92v92.94H133.09V753.65H176.7L189.45,817h.74l15.06-63.39h43.61V879.91Z"/><path class="cls-2" d="M360.39,753.65h89.24v22.64H419.36v81h30.26v22.64H360.39V857.27h30.45v-81H360.39Z"/><path class="cls-2" d="M602.48,851.47q7.54,7.64,19.14,7.64,13.06,0,19.32-7.09t6.26-21.81h25.95q0,16.19-6.53,27.88a43.26,43.26,0,0,1-17.94,17.67,54.64,54.64,0,0,1-25.77,6h-2.58A61,61,0,0,1,592,875.31a47.09,47.09,0,0,1-19.69-19q-7.18-12.6-7.18-30.46v-18q0-17.3,7.18-30a48.28,48.28,0,0,1,19.6-19.32,57.9,57.9,0,0,1,27.7-6.63h2.58a57.49,57.49,0,0,1,26.23,5.8,42.55,42.55,0,0,1,18.13,17.48q6.62,11.69,6.63,28.62H646.1q0-14.36-6.35-21.81t-18.31-7.46q-11.6,0-19,7.64t-7.45,21.62v26.13Q594.94,843.83,602.48,851.47Z"/><path class="cls-2" d="M860.43,789.36a12.73,12.73,0,0,0-5.52-10.95q-5.52-4-15.27-4-10.12,0-15.73,3.22t-5.61,8.56a9.68,9.68,0,0,0,3.5,7.64,26.33,26.33,0,0,0,8.93,4.88q5.42,1.84,14.82,4a177.86,177.86,0,0,1,22.73,6.81,38.43,38.43,0,0,1,15.27,10.86q6.35,7.36,6.35,19.69,0,21.53-13.89,31.56t-38.19,10q-22.08,0-36.53-9.66t-14.45-29.36l.18-4h26.87l-.18,2.94a15.3,15.3,0,0,0,6.07,12.79q6.07,4.69,17.12,4.69,12.88,0,18.49-4T861,844.75a10,10,0,0,0-3.41-7.82,24.43,24.43,0,0,0-8.65-4.78q-5.25-1.75-14.63-4a186.81,186.81,0,0,1-22.82-7A37.81,37.81,0,0,1,796.2,810q-6.45-7.73-6.44-20.8,0-12.15,6.63-20.61A39.37,39.37,0,0,1,814.14,756a71.09,71.09,0,0,1,24.94-4.14q21.16,0,34.6,9.3t13.44,27.7V791H860.43Z"/><path class="cls-3" d="M221.84,152.43q11.23,8.26,11.23,22.65,0,12.86-6.81,21.88t-16.8,10.94v1a32.18,32.18,0,0,1,15.16,12.67q5.95,9,5.95,21.69,0,10.56,1.15,15.93t3.07,7.49a12.33,12.33,0,0,0,5.57,3.26v5.37a23.61,23.61,0,0,1-9,1.73q-9.21,0-14.4-5.47t-5.18-20.64q0-15.55-6.43-24.28t-16-8.74H155.9v58H137.09V144.17h56.05Q210.61,144.17,221.84,152.43Zm-65.94,8.83V200.8h37.44a21.44,21.44,0,0,0,14.59-5.57,17.66,17.66,0,0,0,6.33-13.82v-.77a18.37,18.37,0,0,0-5.76-13.92q-5.76-5.47-15.16-5.47Z"/><path class="cls-3" d="M443.87,144.17l-2.5,17.09H376.29V200h58.93v17.09H376.29v41.66h66.23l2.69,17.09H357.48V144.17Z"/><path class="cls-3" d="M639.5,148.2a41.86,41.86,0,0,1,17.56,16.89q6.14,10.94,6.14,25.34H644.4q0-14.78-8.16-22.94t-23.52-8.16q-17.28,0-26.3,10.65t-9,31.39v17.28q0,20.73,8.93,31.39t26.39,10.65q16.7,0,24.38-8.35t7.68-26.59v-2.49H607.54V206.37h55.67v44.92a198.78,198.78,0,0,0,1.15,24.57H653.23a116.84,116.84,0,0,1-3.84-15.74q-12.48,17.66-36.67,17.66-25.53,0-39.83-15.65t-14.3-43.48V201.38q0-27.64,14.3-43.38t39.83-15.74Q628.08,142.25,639.5,148.2Z"/><path class="cls-3" d="M873.85,144.17v17.09H836v97.52h37.86v17.09H779.32V258.77h37.86V161.26H779.32V144.17Z"/><path class="cls-3" d="M218.37,358.83q12.38,9.6,12.38,27.26v2.3H211.94v-2.88a16.08,16.08,0,0,0-7.49-14.21q-7.48-5-19.77-5-13.63,0-21.21,4.51t-7.58,13a13.55,13.55,0,0,0,4.32,10.37A30.68,30.68,0,0,0,171,400.48q6.43,2.31,17.76,5.19a203.21,203.21,0,0,1,23.61,7.49,40.62,40.62,0,0,1,15.45,10.94q6.43,7.3,6.43,19.39,0,21.5-13.15,31.38t-37,9.89q-23.81,0-37-10.08T134,445.41l.19-3.84H153l-.19,4q0,11.14,8.35,16.61t23.13,5.47q14.4,0,22.75-5.28t8.35-14.49q0-7.3-4.51-11.81a30.71,30.71,0,0,0-11.33-7q-6.82-2.49-18.52-5.56a209.53,209.53,0,0,1-23-7.3,37.45,37.45,0,0,1-14.78-10.65q-6.15-7.2-6.14-18.91,0-19,12.86-28.22t34.36-9.21Q206,349.23,218.37,358.83Z"/><path class="cls-3" d="M449.81,351.15v17.09H408.53v114.6H389.72V368.24H348.45V351.15Z"/><path class="cls-3" d="M661.18,351.15l-2.5,17.09H593.61V407h58.93V424.1H593.61v41.65h66.23l2.69,17.09H574.79V351.15Z"/><path class="cls-3" d="M869,359.41q11.23,8.25,11.23,22.65,0,12.86-6.81,21.88t-16.8,10.94v1a32.2,32.2,0,0,1,15.16,12.67q5.95,9,5.95,21.69,0,10.56,1.15,15.93t3.07,7.48a12.33,12.33,0,0,0,5.57,3.26v5.37a23.61,23.61,0,0,1-9,1.73q-9.21,0-14.4-5.47t-5.18-20.64q0-15.55-6.43-24.28t-16-8.74h-33.4v58H784.25V351.15H840.3Q857.77,351.15,869,359.41Zm-65.94,8.83v39.54h37.44a21.43,21.43,0,0,0,14.59-5.57,17.65,17.65,0,0,0,6.33-13.82v-.77a18.37,18.37,0,0,0-5.76-13.92q-5.76-5.47-15.16-5.47Z"/></svg>