<svg id="Layer_1" data-name="Layer 1" xmlns="http://www.w3.org/2000/svg" viewBox="0 0 322 306"><defs><style>.cls-1{fill:#fa8282;}.cls-2{fill:none;stroke:#00461e;stroke-miterlimit:10;stroke-width:6.5px;}</style></defs><title>Strategy</title><path class="cls-1" d="M176.88,259.38c-.08-4-.16-8.11.9-12s3.44-7.6,7.07-9.32a21.09,21.09,0,0,1,7.36-1.51l17.42-1.44c3.08-.25,6.26-.54,9-2,5.87-3.21,7.6-11,6.7-17.63a15.4,15.4,0,0,1-.26-4.73c.5-2.8,2.79-4.89,4.19-7.38s1.4-6.4-1.27-7.39c3.9-3,2.56-9,1.28-13.73a4,4,0,0,1-.17-2.05,3.4,3.4,0,0,1,1.88-1.93c3.14-1.62,7.11-1.5,9.86-3.73a9.34,9.34,0,0,0,3-7.73,23.13,23.13,0,0,0-2.38-8.23,93.92,93.92,0,0,0-7.38-13.41c-1.49-2.25-3.14-4.62-3.16-7.31a14.87,14.87,0,0,1,.9-4.36,56.84,56.84,0,0,0-.37-33.42c-6.17-19.25-19.37-60.83-92.27-60.83s-81.7,65.07-75.83,86.1,25.93,55.28,25.93,71.43-9.78,62.63-9.78,62.63"/><path class="cls-2" d="M86.85,190.52c4.58-9.69,3.2-21,.29-31.05-2.58-8.95-5-17.76-7.5-26.74-5.87-21,2.94-86.1,75.83-86.1s86.1,41.58,92.27,60.83a56.84,56.84,0,0,1,.37,33.42,14.87,14.87,0,0,0-.9,4.36c0,2.7,1.68,5.06,3.16,7.31A93.92,93.92,0,0,1,257.75,166a23.13,23.13,0,0,1,2.38,8.23,9.34,9.34,0,0,1-3,7.73c-2.75,2.23-6.72,2.11-9.86,3.73a3.4,3.4,0,0,0-1.88,1.93,4,4,0,0,0,.17,2.05c1.28,4.73,2.62,10.76-1.28,13.73,2.67,1,2.67,4.91,1.27,7.39s-3.69,4.57-4.19,7.38a15.4,15.4,0,0,0,.26,4.73c.89,6.63-.84,14.42-6.7,17.63-2.71,1.48-5.89,1.77-9,2L208.51,244a21.09,21.09,0,0,0-7.36,1.51c-3.64,1.72-6,5.44-7.07,9.32s-1,8-.9,12"/></svg>